{
  "accessors": [
    {
      "bufferView": 2,
      "componentType": 5126,
      "count": 3697,
      "max": [
        7.5896148681640625,
        7.571515083312988,
        24.68323516845703
      ],
      "min": [
        -7.589613914489746,
        -7.589048862457275,
        9.282546997070313
      ],
      "type": "VEC3"
    },
    {
      "bufferView": 2,
      "byteOffset": 44364,
      "componentType": 5126,
      "count": 3697,
      "max": [
        1.0,
        1.0,
        0.9999988079071045
      ],
      "min": [
        -1.0,
        -1.0,
        -0.9999988079071045
      ],
      "type": "VEC3"
    },
    {
      "bufferView": 1,
      "componentType": 5126,
      "count": 3697,
      "max": [
        1.7083319425582886,
        0.9949730038642883
      ],
      "min": [
        1.2095470428466797,
        0.005026999861001968
      ],
      "type": "VEC2"
    },
    {
      "bufferView": 0,
      "componentType": 5125,
      "count": 21504,
      "type": "SCALAR"
    },
    {
      "bufferView": 2,
      "byteOffset": 88728,
      "componentType": 5126,
      "count": 43212,
      "max": [
        7.777987957000732,
        7.759160041809082,
        28.017929077148438
      ],
      "min": [
        -7.777987003326416,
        -7.777989864349365,
        5.78455114364624
      ],
      "type": "VEC3"
    },
    {
      "bufferView": 2,
      "byteOffset": 607272,
      "componentType": 5126,
      "count": 43212,
      "max": [
        1.0,
        1.0,
        1.0
      ],
      "min": [
        -1.0,
        -1.0,
        -1.0
      ],
      "type": "VEC3"
    },
    {
      "bufferView": 1,
      "byteOffset": 29576,
      "componentType": 5126,
      "count": 43212,
      "max": [
        2.9858601093292236,
        0.989916980266571
      ],
      "min": [
        2.005966901779175,
        0.010053000412881374
      ],
      "type": "VEC2"
    },
    {
      "bufferView": 0,
      "byteOffset": 86016,
      "componentType": 5125,
      "count": 248160,
      "type": "SCALAR"
    },
    {
      "bufferView": 2,
      "byteOffset": 1125816,
      "componentType": 5126,
      "count": 53766,
      "max": [
        14.895673751831055,
        14.629496574401855,
        27.169200897216797
      ],
      "min": [
        -14.895673751831055,
        -14.629502296447754,
        0.011514999903738499
      ],
      "type": "VEC3"
    },
    {
      "bufferView": 2,
      "byteOffset": 1771008,
      "componentType": 5126,
      "count": 53766,
      "max": [
        1.0,
        1.0,
        1.0
      ],
      "min": [
        -1.0,
        -1.0,
        -1.0
      ],
      "type": "VEC3"
    },
    {
      "bufferView": 1,
      "byteOffset": 375272,
      "componentType": 5126,
      "count": 53766,
      "max": [
        0.998753011226654,
        0.997829020023346
      ],
      "min": [
        0.004492000211030245,
        0.0027759999502450228
      ],
      "type": "VEC2"
    },
    {
      "bufferView": 0,
      "byteOffset": 1078656,
      "componentType": 5125,
      "count": 308352,
      "type": "SCALAR"
    }
  ],
  "asset": {
    "extras": {
      "author": "Théo A (https://sketchfab.com/lazygraph)",
      "license": "CC-BY-NC-4.0 (http://creativecommons.org/licenses/by-nc/4.0/)",
      "source": "https://sketchfab.com/3d-models/old-vintage-globe-316a29daefe9450e89c11ecdca132020",
      "title": "Old Vintage Globe"
    },
    "generator": "Sketchfab-12.9.0",
    "version": "2.0"
  },
  "bufferViews": [
    {
      "buffer": 0,
      "byteLength": 2312064,
      "name": "floatBufferViews",
      "target": 34963
    },
    {
      "buffer": 0,
      "byteLength": 805400,
      "byteOffset": 2312064,
      "byteStride": 8,
      "name": "floatBufferViews",
      "target": 34962
    },
    {
      "buffer": 0,
      "byteLength": 2416200,
      "byteOffset": 3117464,
      "byteStride": 12,
      "name": "floatBufferViews",
      "target": 34962
    }
  ],
  "buffers": [
    {
      "byteLength": 5533664,
      "uri": "scene.bin"
    }
  ],
  "images": [
    {
      "uri": "textures/material_baseColor.png"
    },
    {
      "uri": "textures/material_metallicRoughness.png"
    },
    {
      "uri": "textures/Metal_baseColor.png"
    },
    {
      "uri": "textures/Metal_metallicRoughness.png"
    },
    {
      "uri": "textures/Wood_baseColor.png"
    },
    {
      "uri": "textures/Wood_metallicRoughness.png"
    }
  ],
  "materials": [
    {
      "doubleSided": true,
      "name": "material",
      "pbrMetallicRoughness": {
        "baseColorTexture": {
          "index": 0
        },
        "metallicFactor": 0.0,
        "metallicRoughnessTexture": {
          "index": 1
        }
      }
    },
    {
      "doubleSided": true,
      "name": "Metal",
      "pbrMetallicRoughness": {
        "baseColorFactor": [
          0.4516428627887322,
          0.4516428627887322,
          0.4516428627887322,
          1.0
        ],
        "baseColorTexture": {
          "index": 2
        },
        "metallicRoughnessTexture": {
          "index": 3
        }
      }
    },
    {
      "doubleSided": true,
      "name": "Wood",
      "pbrMetallicRoughness": {
        "baseColorTexture": {
          "index": 4
        },
        "metallicFactor": 0.0,
        "metallicRoughnessTexture": {
          "index": 5
        }
      }
    }
  ],
  "meshes": [
    {
      "name": "Object_0",
      "primitives": [
        {
          "attributes": {
            "NORMAL": 1,
            "POSITION": 0,
            "TEXCOORD_0": 2
          },
          "indices": 3,
          "material": 0,
          "mode": 4
        }
      ]
    },
    {
      "name": "Object_1",
      "primitives": [
        {
          "attributes": {
            "NORMAL": 5,
            "POSITION": 4,
            "TEXCOORD_0": 6
          },
          "indices": 7,
          "material": 1,
          "mode": 4
        }
      ]
    },
    {
      "name": "Object_2",
      "primitives": [
        {
          "attributes": {
            "NORMAL": 9,
            "POSITION": 8,
            "TEXCOORD_0": 10
          },
          "indices": 11,
          "material": 2,
          "mode": 4
        }
      ]
    }
  ],
  "nodes": [
    {
      "children": [
        1
      ],
      "matrix": [
        1.0,
        0.0,
        0.0,
        0.0,
        0.0,
        2.220446049250313e-16,
        -1.0,
        0.0,
        0.0,
        1.0,
        2.220446049250313e-16,
        0.0,
        0.0,
        0.0,
        0.0,
        1.0
      ],
      "name": "Sketchfab_model"
    },
    {
      "children": [
        2,
        3,
        4
      ],
      "name": "globe.obj.cleaner.materialmerger.gles"
    },
    {
      "mesh": 0,
      "name": "Object_2"
    },
    {
      "mesh": 1,
      "name": "Object_3"
    },
    {
      "mesh": 2,
      "name": "Object_4"
    }
  ],
  "samplers": [
    {
      "magFilter": 9729,
      "minFilter": 9987,
      "wrapS": 10497,
      "wrapT": 10497
    }
  ],
  "scene": 0,
  "scenes": [
    {
      "name": "Sketchfab_Scene",
      "nodes": [
        0
      ]
    }
  ],
  "textures": [
    {
      "sampler": 0,
      "source": 0
    },
    {
      "sampler": 0,
      "source": 1
    },
    {
      "sampler": 0,
      "source": 2
    },
    {
      "sampler": 0,
      "source": 3
    },
    {
      "sampler": 0,
      "source": 4
    },
    {
      "sampler": 0,
      "source": 5
    }
  ]
}
